<?xml version="1.0" standalone="no"?><!DOCTYPE svg PUBLIC "-//W3C//DTD SVG 1.1//EN" "http://www.w3.org/Graphics/SVG/1.1/DTD/svg11.dtd"><svg t="1779183441790" class="icon" viewBox="0 0 1024 1024" version="1.1" xmlns="http://www.w3.org/2000/svg" p-id="7516" width="100%" height="100%" xmlns:xlink="http://www.w3.org/1999/xlink"><path d="M521.941333 257.365333c38.122667 0 85.930667-25.258667 113.856-59.626666 25.792-31.146667 44.586667-74.112 44.586667-117.098667 0-5.888-0.533333-11.797333-1.621333-16.64-42.432 1.621333-93.44 27.946667-123.52 63.36-23.637333 27.413333-46.208 70.4-46.208 113.877333 0 6.464 1.066667 12.906667 1.621333 15.04 2.688 0.554667 6.976 1.066667 11.285333 1.066667z m-133.205333 646.144c52.096 0 75.2-34.922667 139.648-34.922666 64.981333 0 80.021333 33.834667 137.493333 33.834666 56.405333 0 94.528-52.096 129.984-103.658666 40.277333-59.093333 56.938667-116.010667 57.472-119.253334-3.221333-1.066667-111.722667-45.098667-111.722666-169.706666 0-107.946667 85.397333-155.754667 90.24-159.530667-56.405333-81.642667-142.336-83.776-165.973334-83.776-63.914667 0-114.944 38.677333-148.245333 38.677333-34.901333 0-81.088-36.544-136.426667-36.544C277.013333 268.629333 170.666667 355.669333 170.666667 518.4c0 102.037333 39.210667 208.938667 87.552 278.229333 41.898667 58.538667 78.421333 106.88 130.517333 106.88z" fill="#3D3D3D" p-id="7517"></path></svg>
